<!--?xml version="1.0" encoding="utf-8"?-->
<!-- Generator: Adobe Illustrator 18.0.0, SVG Export Plug-In . SVG Version: 6.00 Build 0)  -->

<svg version="1.1" id="_x32_" xmlns="http://www.w3.org/2000/svg" xmlns:xlink="http://www.w3.org/1999/xlink" x="0px" y="0px" viewBox="0 0 512 512" style="width: 256px; height: 256px; opacity: 1;" xml:space="preserve">
<style type="text/css">
	.st0{fill:#4B4B4B;}
</style>
<g>
	<path class="st0" d="M377.262,24.689c-0.145,2.572-0.404,4.971-0.637,7.225c-1.125,10.549-1.414,16.328,4.25,21.992
		c5.664,5.664,11.414,5.348,21.992,4.248c6.689-0.711,14.914-1.549,23.234,0.877c0.176,0.053,0.361,0.096,0.537,0.148
		c1.615,0.5,3.232,1.117,4.842,1.896c0.064,0.029,0.125,0.066,0.188,0.096c3.326,1.633,6.617,3.906,9.779,7.068
		c12.803,12.803,11.242,27.715,10.115,38.61c-1.127,10.549-1.416,16.328,4.219,21.963c2.976,2.976,6.012,4.336,9.738,4.77
		c9.802-28.539,12.578-58.436,26.246-74.656c0.102-0.121,0.215-0.228,0.32-0.348c1.955-2.266,4.166-4.213,6.613-5.885
		c0.465-0.316,0.91-0.652,1.392-0.947c1.24-0.75,2.547-1.422,3.924-2.016c0.635-0.274,1.33-0.482,1.996-0.721
		c1.254-0.449,2.498-0.912,3.869-1.23C525.545,44.138,451.678-7.766,377.262,24.689z" style="fill: rgb(75, 75, 75);"></path>
	<path class="st0" d="M441.332,143.264c-12.803-12.803-11.242-27.715-10.086-38.58c1.098-10.578,1.416-16.328-4.248-21.992
		c-5.664-5.666-11.416-5.348-21.994-4.25c-6.68,0.711-14.894,1.547-23.203-0.869c-0.191-0.056-0.388-0.102-0.578-0.16
		c-1.609-0.498-3.222-1.115-4.828-1.889c-0.066-0.033-0.131-0.072-0.197-0.105c-3.324-1.631-6.614-3.902-9.772-7.063
		c-8.916-8.914-10.879-18.822-10.852-27.684c0.035-1.338,0.106-2.642,0.219-3.885c-0.033,0.022-0.064,0.051-0.098,0.072
		c0.004-0.066,0.004-0.139,0.008-0.205c-7.484,5.057-14.883,11.125-22.107,18.35c-25.402,25.402-29.824,58.262-20.287,85.369
		l49.244,49.244c11.778,4.293,24.43,5.916,36.631,4.883c0.148-0.012,0.297-0.024,0.447-0.037c6.553-0.592,12.914-2.018,18.963-4.297
		c0.293-0.111,0.586-0.223,0.875-0.336c5.61-2.205,10.864-5.158,15.656-8.922c0.596-0.468,1.162-0.968,1.738-1.459
		c1.215-1.031,2.518-1.926,3.66-3.066c6.512-6.514,11.615-13.822,15.768-21.531c0.369-0.66,0.764-1.281,1.125-1.955
		c-0.012-0.004-0.024-0.01-0.037-0.012c0.025-0.049,0.055-0.094,0.078-0.143C452.025,151.297,446.504,148.436,441.332,143.264z" style="fill: rgb(75, 75, 75);"></path>
	<path class="st0" d="M219.615,195.369c-0.408,0.306-0.6,0.75-0.945,1.1c-0.334,0.338-0.639,0.691-0.92,1.072
		c-0.602,0.815-1.055,1.649-1.379,2.58c-0.117,0.336-0.211,0.674-0.293,1.023c-0.238,1.026-0.308,2.022-0.218,3.07
		c0.031,0.356,0.078,0.703,0.146,1.053c0.188,0.967,0.518,1.854,0.998,2.744c0.226,0.42,0.48,0.82,0.768,1.205
		c0.291,0.392,0.416,0.858,0.775,1.215l68.957,68.959c2.49,2.488,5.879,3.184,9.035,2.541c0.356-0.072,0.69-0.188,1.031-0.297
		c1-0.318,1.902-0.772,2.776-1.406c0.369-0.271,0.711-0.572,1.043-0.896c0.377-0.365,0.85-0.576,1.178-1.012l56.733-71.77
		l-67.914-67.914L219.615,195.369z" style="fill: rgb(75, 75, 75);"></path>
	<path class="st0" d="M205.548,216.082l-4.356-4.367l-0.006,0.006l-0.113-0.112L6.752,427.114
		c-9.373,10.461-8.936,26.422,0.994,36.352L34.47,490.19c9.932,9.932,25.893,10.369,36.352,0.994l204.458-184.36l10.935-9.85
		l-0.006-0.006l0.119-0.108L205.548,216.082z" style="fill: rgb(75, 75, 75);"></path>
</g>
</svg>
